<?xml version="1.0" encoding="UTF-8" standalone="no"?>
<!-- Created with Inkscape (http://www.inkscape.org/) -->

<svg
   width="210mm"
   height="297mm"
   viewBox="0 0 210 297"
   version="1.1"
   id="svg1"
   xml:space="preserve"
   inkscape:version="1.4 (e7c3feb1, 2024-10-09)"
   sodipodi:docname="logo-artwork.svg"
   xmlns:inkscape="http://www.inkscape.org/namespaces/inkscape"
   xmlns:sodipodi="http://sodipodi.sourceforge.net/DTD/sodipodi-0.dtd"
   xmlns="http://www.w3.org/2000/svg"
   xmlns:svg="http://www.w3.org/2000/svg"><sodipodi:namedview
     id="namedview1"
     pagecolor="#ffffff"
     bordercolor="#000000"
     borderopacity="0.25"
     inkscape:showpageshadow="2"
     inkscape:pageopacity="0.0"
     inkscape:pagecheckerboard="0"
     inkscape:deskcolor="#d1d1d1"
     inkscape:document-units="mm"
     inkscape:zoom="0.80354938"
     inkscape:cx="1129.3643"
     inkscape:cy="561.25984"
     inkscape:window-width="3440"
     inkscape:window-height="1387"
     inkscape:window-x="0"
     inkscape:window-y="25"
     inkscape:window-maximized="1"
     inkscape:current-layer="layer1" /><defs
     id="defs1" /><g
     inkscape:label="Layer 1"
     inkscape:groupmode="layer"
     id="layer1"><path
       style="fill:#000000"
       d="m 31.633107,98.38785 c 1.82659,-0.95344 3.85614,-3.07015 4.65346,-4.8533 0.54847,-1.22661 0.6545,-2.86408 0.81097,-12.52361 l 0.18001,-11.1125 1.00198,-1.90318 1.00197,-1.90318 15.75497,15.73094 c 13.24511,13.2249 16.06407,15.87387 17.69524,16.6282 6.46481,2.98961 14.11779,-1.86404 14.10915,-8.94826 -0.005,-4.08049 -1.09698,-5.74434 -7.81064,-11.90086 -11.40821,-10.4615 -17.73837,-14.88824 -24.46656,-17.10972 -3.48798,-1.15164 -9.01942,-1.14469 -11.81805,0.0148 -1.06716,0.44215 -2.22614,1.06137 -2.57552,1.37606 -0.58666,0.52838 -0.70808,0.52497 -1.5875,-0.0446 -5.13314,-3.32433 -11.60122,-3.03329 -16.56425,0.74534 -1.70538,1.29841 -3.55678,4.00813 -4.35648,6.37619 -0.65759,1.94722 -0.70001,2.85231 -0.60012,12.80564 0.10641,10.60353 0.1162,10.72739 0.98207,12.42268 1.0199,1.99685 2.31759,3.18245 4.76985,4.35785 1.51363,0.72549 2.16431,0.82647 4.58611,0.71172 1.9707,-0.0934 3.24799,-0.35596 4.23334,-0.8703 z m -6.17361,-1.83318 c -2.48512,-0.49946 -3.92372,-1.58715 -5.16093,-3.90206 -0.58422,-1.09312 -0.67304,-2.25112 -0.77441,-10.09677 -0.12203,-9.44439 0.11666,-11.87765 1.42134,-14.49003 2.57037,-5.14666 9.50302,-7.31653 14.95057,-4.67941 l 1.4771,0.71504 -1.04047,1.92102 c -0.57226,1.05656 -1.21407,2.44026 -1.42625,3.07489 -0.22519,0.67352 -0.47281,5.7177 -0.59484,12.11701 l -0.20906,10.96313 -0.94686,1.42954 c -1.47369,2.22493 -4.85275,3.51911 -7.69619,2.94764 z m 49.91805,0.003 c -0.58209,-0.13997 -1.45521,-0.45739 -1.94028,-0.70538 -0.92838,-0.47464 -31.75,-31.05468 -31.75,-31.50115 0,-0.1424 0.67469,-0.60808 1.49931,-1.03483 1.09541,-0.56689 2.32412,-0.81771 4.56111,-0.93107 7.83467,-0.39702 15.67169,4.28321 30.73114,18.3525 5.43355,5.07629 6.44917,7.09725 5.37852,10.70254 -1.05591,3.55564 -5.02173,5.94893 -8.4798,5.11739 z M 33.260647,53.8489 c 1.04513,-0.19301 2.83432,-0.82748 3.97599,-1.40994 l 2.07575,-1.05901 2.15758,1.06058 c 3.109,1.52825 6.02642,1.96394 9.54862,1.42597 7.53972,-1.15157 14.35983,-5.46781 27.40544,-17.34404 7.62002,-6.93699 8.24444,-7.86994 8.23817,-12.30874 -0.003,-2.39216 -0.15786,-3.284 -0.76385,-4.40973 -1.76317,-3.27532 -5.43393,-5.58613 -8.9333,-5.62364 -4.15824,-0.0446 -3.9254,-0.23152 -21.39506,17.17806 -10.38176,10.34606 -16.07635,15.77993 -16.35595,15.60713 -0.23592,-0.1458 -0.76814,-0.99867 -1.18271,-1.89526 -0.70398,-1.52247 -0.76569,-2.35271 -0.93401,-12.56629 l -0.18024,-10.93611 -0.94363,-1.79564 c -3.89026,-7.40275 -14.02561,-7.38491 -18.04037,0.0318 -0.73798,1.3633 -0.76386,1.79355 -0.76386,12.7 v 11.28888 l 0.95105,2.02941 c 1.85433,3.95688 5.88597,7.21073 9.92353,8.00906 2.09003,0.41325 3.05659,0.4165 5.21685,0.0175 z m -5.33171,-2.80119 c -2.89076,-0.88251 -5.80433,-3.22555 -7.05812,-5.676 -1.20317,-2.35151 -1.46523,-5.09664 -1.3463,-14.10244 0.10942,-8.28571 0.14906,-8.71399 0.95873,-10.35876 2.05651,-4.17762 7.71576,-5.30909 11.20987,-2.24122 2.43779,2.1404 2.56936,2.81165 2.57807,13.15255 0.004,5.09712 0.1793,10.12361 0.39264,11.2777 0.38718,2.09444 1.37111,4.42222 2.33175,5.51644 0.46285,0.52721 0.42288,0.65194 -0.37681,1.17592 -2.06939,1.35592 -6.34024,1.97312 -8.68983,1.25581 z m 16.29126,-0.34133 c -1.03224,-0.35651 -2.0598,-0.83121 -2.28348,-1.05489 -0.30707,-0.30707 3.39323,-4.2126 15.10596,-15.9438 8.53196,-8.54541 15.9889,-15.79794 16.57098,-16.11673 1.76367,-0.96591 4.97151,-0.79459 6.95798,0.3716 3.30883,1.9425 4.56778,6.22732 2.82713,9.62208 -1.28747,2.51092 -14.77886,14.48438 -20.89761,18.54639 -7.05276,4.68207 -13.38397,6.26664 -18.28096,4.57535 z"
       id="path1"
       sodipodi:nodetypes="csscccssssssscssssssccssssscssscsssssssssssscssscsssssscssscssssssssscssssssssssss" /><path
       style="fill:#000000;stroke-width:3;stroke-dasharray:none;stroke:#000000;stroke-opacity:1"
       d="m 33.279448,216.2659 c 1.82659,-0.95344 3.85614,-3.07015 4.65346,-4.8533 0.54847,-1.22661 0.6545,-2.86408 0.81097,-12.52361 l 0.18001,-11.1125 1.00198,-1.90318 1.00197,-1.90318 15.75497,15.73094 c 13.24511,13.2249 16.06407,15.87387 17.69524,16.6282 6.46481,2.98961 14.11779,-1.86404 14.10915,-8.94826 -0.005,-4.08049 -1.09698,-5.74434 -7.81064,-11.90086 -11.40821,-10.4615 -17.73837,-14.88824 -24.46656,-17.10972 -3.48798,-1.15164 -9.01942,-1.14469 -11.81805,0.0148 -1.06716,0.44215 -2.22614,1.06137 -2.57552,1.37606 -0.58666,0.52838 -0.70808,0.52497 -1.5875,-0.0446 -5.13314,-3.32433 -11.60122,-3.03329 -16.56425,0.74534 -1.70538,1.29841 -3.55678,4.00813 -4.35648,6.37619 -0.65759,1.94722 -0.70001,2.85231 -0.60012,12.80564 0.10641,10.60353 0.1162,10.72739 0.98207,12.42268 1.0199,1.99685 2.31759,3.18245 4.76985,4.35785 1.51363,0.72549 2.16431,0.82647 4.58611,0.71172 1.9707,-0.0934 3.24799,-0.35596 4.23334,-0.8703 z m -6.17361,-1.83318 c -2.48512,-0.49946 -3.92372,-1.58715 -5.16093,-3.90206 -0.58422,-1.09312 -0.67304,-2.25112 -0.77441,-10.09677 -0.12203,-9.44439 0.11666,-11.87765 1.42134,-14.49003 2.57037,-5.14666 9.50302,-7.31653 14.95057,-4.67941 l 1.4771,0.71504 -1.04047,1.92102 c -0.57226,1.05656 -1.21407,2.44026 -1.42625,3.07489 -0.22519,0.67352 -0.47281,5.7177 -0.59484,12.11701 l -0.20906,10.96313 -0.94686,1.42954 c -1.47369,2.22493 -4.85275,3.51911 -7.69619,2.94764 z m 49.91805,0.003 c -0.58209,-0.13997 -1.45521,-0.45739 -1.94028,-0.70538 -0.92838,-0.47464 -31.75,-31.05468 -31.75,-31.50115 0,-0.1424 0.67469,-0.60808 1.49931,-1.03483 1.09541,-0.56689 2.32412,-0.81771 4.56111,-0.93107 7.83467,-0.39702 15.67169,4.28321 30.73114,18.3525 5.43355,5.07629 6.44917,7.09725 5.37852,10.70254 -1.05591,3.55564 -5.02173,5.94893 -8.4798,5.11739 z m -42.1169,-42.70877 c 1.04513,-0.19301 2.83432,-0.82748 3.97599,-1.40994 l 2.07575,-1.05901 2.15758,1.06058 c 3.109,1.52825 6.02642,1.96394 9.54862,1.42597 7.53972,-1.15157 14.35983,-5.46781 27.40544,-17.34404 7.62002,-6.93699 8.24444,-7.86994 8.23817,-12.30874 -0.003,-2.39216 -0.15786,-3.284 -0.76385,-4.40973 -1.76317,-3.27532 -5.43393,-5.58613 -8.9333,-5.62364 -4.15824,-0.0446 -3.9254,-0.23152 -21.39506,17.17806 -10.38176,10.34606 -16.07635,15.77993 -16.35595,15.60713 -0.23592,-0.1458 -0.76814,-0.99867 -1.18271,-1.89526 -0.70398,-1.52247 -0.76569,-2.35271 -0.93401,-12.56629 l -0.18024,-10.93611 -0.94363,-1.79564 c -3.89026,-7.40275 -14.02561,-7.38491 -18.04037,0.0318 -0.73798,1.3633 -0.76386,1.79355 -0.76386,12.7 v 11.28888 l 0.95105,2.02941 c 1.85433,3.95688 5.88597,7.21073 9.92353,8.00906 2.09003,0.41325 3.05659,0.4165 5.21685,0.0175 z m -5.33171,-2.80119 c -2.89076,-0.88251 -5.80433,-3.22555 -7.05812,-5.676 -1.20317,-2.35151 -1.46523,-5.09664 -1.3463,-14.10244 0.10942,-8.28571 0.14906,-8.71399 0.95873,-10.35876 2.05651,-4.17762 7.71576,-5.30909 11.20987,-2.24122 2.43779,2.1404 2.56936,2.81165 2.57807,13.15255 0.004,5.09712 0.1793,10.12361 0.39264,11.2777 0.38718,2.09444 1.37111,4.42222 2.33175,5.51644 0.46285,0.52721 0.42288,0.65194 -0.37681,1.17592 -2.06939,1.35592 -6.34024,1.97312 -8.68983,1.25581 z m 16.29126,-0.34133 c -1.03224,-0.35651 -2.0598,-0.83121 -2.28348,-1.05489 -0.30707,-0.30707 3.39323,-4.2126 15.10596,-15.9438 8.53196,-8.54541 15.9889,-15.79794 16.57098,-16.11673 1.76367,-0.96591 4.97151,-0.79459 6.95798,0.3716 3.30883,1.9425 4.56778,6.22732 2.82713,9.62208 -1.28747,2.51092 -14.77886,14.48438 -20.89761,18.54639 -7.05276,4.68207 -13.38397,6.26664 -18.28096,4.57535 z"
       id="path2"
       sodipodi:nodetypes="csscccssssssscssssssccssssscssscsssssssssssscssscsssssscssscssssssssscssssssssssss"
       inkscape:export-filename="path2.png"
       inkscape:export-xdpi="96"
       inkscape:export-ydpi="96" /><path
       style="fill:#000000;stroke:#000000;stroke-width:0.446033;stroke-dasharray:none;stroke-opacity:1"
       d="m 119.65981,218.37294 c 0.27158,-0.14176 0.57333,-0.45647 0.69187,-0.72158 0.0815,-0.18237 0.0973,-0.42583 0.12057,-1.86198 l 0.0268,-1.65219 0.14897,-0.28296 0.14897,-0.28296 2.34242,2.33885 c 1.96925,1.96624 2.38837,2.36009 2.63089,2.47224 0.96117,0.44449 2.099,-0.27714 2.09771,-1.33041 -7.4e-4,-0.60668 -0.16309,-0.85405 -1.16127,-1.76939 -1.69614,-1.5554 -2.6373,-2.21355 -3.63763,-2.54384 -0.51859,-0.17122 -1.34099,-0.17019 -1.75708,0.002 -0.15867,0.0657 -0.33098,0.1578 -0.38293,0.20459 -0.0872,0.0786 -0.10527,0.078 -0.23602,-0.007 -0.76319,-0.49425 -1.72485,-0.45098 -2.46274,0.11082 -0.25355,0.19304 -0.52881,0.59592 -0.64771,0.94799 -0.0978,0.28951 -0.10408,0.42408 -0.0892,1.90392 0.0158,1.57651 0.0173,1.59492 0.14601,1.84698 0.15163,0.29688 0.34457,0.47316 0.70917,0.64791 0.22504,0.10787 0.32178,0.12288 0.68185,0.10582 0.293,-0.0139 0.4829,-0.0529 0.6294,-0.1294 z m -0.91787,-0.27256 c -0.36949,-0.0743 -0.58337,-0.23597 -0.76732,-0.58014 -0.0869,-0.16253 -0.10007,-0.3347 -0.11514,-1.50117 -0.0181,-1.40417 0.0173,-1.76594 0.21132,-2.15435 0.38216,-0.76519 1.41289,-1.0878 2.22282,-0.69572 l 0.21961,0.10631 -0.15469,0.28561 c -0.0851,0.15709 -0.18051,0.36281 -0.21205,0.45717 -0.0335,0.10014 -0.0703,0.8501 -0.0884,1.80153 l -0.0311,1.62998 -0.14078,0.21254 c -0.21911,0.33079 -0.7215,0.52321 -1.14425,0.43824 z m 7.4217,4.5e-4 c -0.0865,-0.0208 -0.21635,-0.068 -0.28847,-0.10487 -0.13803,-0.0706 -4.72052,-4.61715 -4.72052,-4.68353 0,-0.0212 0.10031,-0.0904 0.22291,-0.15385 0.16286,-0.0843 0.34554,-0.12158 0.67814,-0.13843 1.16484,-0.059 2.33003,0.63682 4.56903,2.72861 0.80785,0.75473 0.95885,1.0552 0.79967,1.59123 -0.15699,0.52864 -0.74662,0.88447 -1.26076,0.76084 z m -6.26185,-6.34985 c 0.15539,-0.0287 0.4214,-0.12302 0.59115,-0.20962 l 0.30861,-0.15745 0.32079,0.15768 c 0.46224,0.22722 0.89599,0.29199 1.41967,0.21201 1.12098,-0.17121 2.13498,-0.81294 4.07458,-2.57867 1.13292,-1.03138 1.22576,-1.17009 1.22483,-1.83004 -4.5e-4,-0.35566 -0.0235,-0.48826 -0.11357,-0.65563 -0.26214,-0.48697 -0.8079,-0.83053 -1.32818,-0.83611 -0.61824,-0.007 -0.58362,-0.0344 -3.18097,2.554 -1.54354,1.53823 -2.3902,2.34612 -2.43177,2.32043 -0.0351,-0.0217 -0.1142,-0.14848 -0.17584,-0.28178 -0.10467,-0.22636 -0.11384,-0.3498 -0.13887,-1.86833 l -0.0268,-1.62596 -0.14029,-0.26697 c -0.5784,-1.10062 -2.0853,-1.09797 -2.68221,0.005 -0.10972,0.20269 -0.11357,0.26666 -0.11357,1.88821 v 1.6784 l 0.14141,0.30173 c 0.27569,0.5883 0.87511,1.07208 1.4754,1.19077 0.31074,0.0614 0.45445,0.0619 0.77563,0.003 z m -0.7927,-0.41647 c -0.4298,-0.13121 -0.86298,-0.47957 -1.04939,-0.8439 -0.17888,-0.34961 -0.21785,-0.75775 -0.20016,-2.09672 0.0163,-1.2319 0.0222,-1.29557 0.14254,-1.54011 0.30576,-0.62112 1.14716,-0.78935 1.66666,-0.33322 0.36244,0.31823 0.382,0.41803 0.3833,1.95549 5.9e-4,0.75783 0.0267,1.50515 0.0584,1.67674 0.0576,0.3114 0.20385,0.65749 0.34668,0.82017 0.0688,0.0784 0.0629,0.0969 -0.056,0.17484 -0.30767,0.20159 -0.94265,0.29336 -1.29198,0.18671 z m 2.42215,-0.0507 c -0.15348,-0.053 -0.30625,-0.12358 -0.33951,-0.15684 -0.0457,-0.0457 0.5045,-0.62632 2.24592,-2.37049 1.26852,-1.27051 2.3772,-2.3488 2.46374,-2.3962 0.26222,-0.14361 0.73915,-0.11814 1.0345,0.0553 0.49195,0.28881 0.67913,0.92587 0.42033,1.43059 -0.19142,0.37332 -2.19729,2.15351 -3.10701,2.75744 -1.04859,0.69612 -1.9899,0.93171 -2.71797,0.68025 z"
       id="path3"
       sodipodi:nodetypes="csscccssssssscssssssccssssscssscsssssssssssscssscsssssscssscssssssssscssssssssssss"
       inkscape:export-filename="path2.png"
       inkscape:export-xdpi="96"
       inkscape:export-ydpi="96" /></g></svg>
